<svg width="270" height="173" viewBox="0 0 270 173" fill="none" xmlns="http://www.w3.org/2000/svg">
<ellipse cx="1.50053" cy="2.33767" rx="1.50053" ry="2.33767" transform="matrix(1 0 0 -1 259.904 142.621)" fill="#064E3B"/>
<ellipse cx="2.13536" cy="3.30024" rx="2.13536" ry="3.30024" transform="matrix(1 0 0 -1 48.332 89.6797)" fill="#047857"/>
<ellipse cx="2.13536" cy="3.30024" rx="2.13536" ry="3.30024" transform="matrix(1 0 0 -1 266.426 14.7383)" fill="#047857"/>
<path d="M16.588 2.40897C17.5114 4.1966 19.0985 3.60072 19.5602 1.53807C19.8487 0.300482 19.8199 -0.75376 20.5413 -1.62466C21.8398 -3.1831 23.5712 -1.99135 24.9563 -1.53298C28.5633 -0.387067 27.3802 -6.11665 29.429 -8.36264C30.3236 -9.37105 31.6798 -9.09603 32.1415 -7.44591C32.3723 -6.66669 31.6221 -5.9333 31.3912 -6.75836C30.641 -9.41689 29.2559 -5.97914 29.025 -4.9249C28.8807 -4.28318 28.7942 -3.64147 28.621 -3.04559C28.3613 -2.08302 28.0151 -1.16629 27.4379 -0.570414C25.822 1.03387 24.0329 -0.937107 22.3881 -0.982944C20.6279 -1.07462 20.801 0.850523 20.195 2.72983C19.9353 3.55488 19.5025 4.15076 18.9542 4.51745C17.8865 5.15917 16.6745 4.79247 15.982 3.37154C15.6069 2.68399 16.2417 1.72142 16.588 2.40897Z" fill="#047857"/>
<path d="M22.1425 161.596C21.8124 127.545 14.4763 93.7566 1.0146 63.7425C-2.76348 55.2736 -7.05508 47.1557 -11.7502 39.3889C-12.1537 38.6868 -11.2 38.0286 -10.7965 38.7307C6.00313 66.5069 17.1173 99.0662 21.3355 133.03C22.5093 142.508 23.1329 152.074 23.2429 161.64C23.2796 162.429 22.1792 162.429 22.1425 161.596Z" fill="#E8E8E8"/>
<path d="M26.7236 160.147C44.6236 147.027 66.7785 142.99 87.2095 148.475C93.005 150.011 98.6171 152.381 103.936 155.408C104.559 155.759 104.009 156.9 103.386 156.549C84.7886 145.93 62.817 144.614 43.3031 152.337C37.691 154.575 32.299 157.559 27.2738 161.244C26.6869 161.727 26.1367 160.586 26.7236 160.147Z" fill="#E8E8E8"/>
<path d="M113.034 155.717C120.847 140.886 133.281 129.916 147.293 124.913C164.203 118.858 182.433 122.851 199.086 128.204C208.366 131.188 217.426 135.269 225.496 141.5C226.083 141.939 225.532 143.08 224.945 142.641C217.829 137.2 210.017 133.382 201.947 130.53C193.51 127.59 184.78 125.308 176.051 124.036C167.651 122.807 159.104 122.807 150.851 125.133C143.882 127.107 137.206 130.618 131.227 135.357C124.331 140.842 118.426 147.994 113.987 156.376C113.621 157.078 112.667 156.42 113.034 155.717Z" fill="#E8E8E8"/>
<path d="M229.826 140.622C227.259 123.86 225.278 106.308 225.975 89.2381C226.525 75.2403 229.716 60.6281 239.253 51.5888C244.939 46.1915 251.871 43.2076 258.657 40.3115C259.317 40.0044 259.611 41.2769 258.951 41.5841C252.972 44.173 246.846 46.7619 241.601 51.15C236.576 55.3186 232.871 61.1547 230.56 67.9123C226.048 81.1641 226.635 96.2151 227.552 110.213C228.213 120.305 229.35 130.354 230.854 140.315C231 141.105 229.937 141.456 229.826 140.622Z" fill="#E8E8E8"/>
<path d="M-8.92767 31.2277C18.4359 26.0937 43.672 7.35679 59.7747 -19.6296C64.2863 -27.2209 68.0644 -35.4265 70.9255 -44.071C71.1823 -44.8608 72.246 -44.5098 71.9892 -43.7199C61.7187 -12.7404 40.2607 12.0081 14.6211 24.6895C7.13833 28.3755 -0.67459 31.0083 -8.63423 32.5002C-9.33116 32.6319 -9.6246 31.3593 -8.92767 31.2277Z" fill="#E8E8E8"/>
<path d="M193.839 -71.803C200.148 -39.1999 217.351 -10.2388 240.387 8.58582C246.989 13.9831 254.068 18.5467 261.478 22.1449C262.138 22.452 261.845 23.7245 261.184 23.4174C234.921 10.6043 212.95 -14.0126 200.662 -44.5972C197.214 -53.1977 194.573 -62.1932 192.776 -71.452C192.629 -72.2857 193.693 -72.6367 193.839 -71.803Z" fill="#E8E8E8"/>
<path d="M28.3765 6.21551C33.8785 3.40717 38.0234 -2.16564 41.9482 -7.3874C46.0197 -12.7847 49.7611 -18.533 53.2091 -24.5446C59.8849 -36.2607 65.2036 -48.986 69.0183 -62.4134C69.2384 -63.2032 70.3021 -62.8522 70.0821 -62.0623C66.1573 -48.3278 60.6552 -35.2514 53.796 -23.2721C50.4214 -17.3921 46.7167 -11.7754 42.7185 -6.46591C38.7204 -1.20027 34.5021 4.50418 28.9267 7.31252C28.3031 7.70744 27.7162 6.56655 28.3765 6.21551Z" fill="#191D23"/>
<path d="M111.862 148.696C117.914 137.024 127.414 128.467 138.345 124.43C139.042 124.167 139.299 125.44 138.638 125.703C127.964 129.608 118.684 137.989 112.815 149.354C112.449 150.1 111.495 149.398 111.862 148.696Z" fill="#191D23"/>
<path d="M22.7997 170.942C34.5374 161.42 49.393 158.348 63.1481 162.298C63.8451 162.517 63.5516 163.746 62.8547 163.57C49.3563 159.665 34.8309 162.78 23.3499 172.083C22.7631 172.522 22.2128 171.381 22.7997 170.942Z" fill="#191D23"/>
<path d="M19.5393 99.416C19.0258 93.185 16.2747 87.305 14.1473 81.6883C11.9465 75.94 9.67228 70.2794 7.36141 64.6189C7.03129 63.8729 7.98498 63.2147 8.3151 63.9607C10.8827 70.1039 13.3403 76.3349 15.7245 82.6098C17.7786 88.0071 20.1995 93.4921 20.6764 99.4599C20.7131 100.25 19.6127 100.25 19.5393 99.416Z" fill="#191D23"/>
<path d="M17.7376 152.291C17.1141 147.596 16.4538 142.9 15.8302 138.205C15.7202 137.372 16.7839 137.02 16.894 137.854C17.5175 142.549 18.1778 147.245 18.8013 151.94C18.9114 152.774 17.8477 153.125 17.7376 152.291Z" fill="#047857"/>
<path d="M111.569 167.252C119.492 155.931 129.322 146.716 140.4 140.222C141.023 139.871 141.573 140.968 140.95 141.363C129.946 147.813 120.189 156.941 112.339 168.174C111.899 168.832 111.129 167.911 111.569 167.252Z" fill="#047857"/>
<path d="M176.527 116.139C185.77 115.613 194.977 117.763 203.34 122.502C203.964 122.853 203.413 123.994 202.79 123.643C194.574 119.035 185.587 116.929 176.527 117.456C175.793 117.499 175.83 116.183 176.527 116.139Z" fill="#047857"/>
<path d="M209.282 136.233C217.094 140.797 224.137 146.94 230.153 154.487C230.63 155.102 229.859 156.023 229.382 155.409C223.44 147.949 216.471 141.894 208.731 137.374C208.108 137.023 208.658 135.882 209.282 136.233Z" fill="#047857"/>
<path d="M-1.51752 36.7128C6.25872 34.7821 13.7415 31.6666 20.8208 27.3663C21.4444 26.9714 21.9946 28.1123 21.371 28.5072C14.2184 32.8514 6.62552 36.0546 -1.22407 37.9854C-1.921 38.1609 -2.21444 36.8884 -1.51752 36.7128Z" fill="#064E3B"/>
<path d="M27.3512 143.648C27.7913 138.514 27.8647 133.336 27.6079 128.202C27.5712 127.369 28.6717 127.369 28.7083 128.202C28.9651 133.38 28.8551 138.514 28.4516 143.648C28.3782 144.482 27.2778 144.482 27.3512 143.648Z" fill="#064E3B"/>
<path d="M147.66 61.5925C150.888 64.2692 154.63 65.4979 158.555 65.2346C159.251 65.1907 159.251 66.5071 158.555 66.551C154.446 66.8143 150.485 65.4979 147.11 62.6896C146.523 62.2507 147.074 61.1099 147.66 61.5925Z" fill="#047857"/>
<path d="M156.576 73.4394C159.767 72.6496 162.849 71.5526 165.856 70.1045C166.517 69.7973 166.81 71.0699 166.15 71.377C163.142 72.8251 160.061 73.9221 156.87 74.7119C156.173 74.8875 155.879 73.6149 156.576 73.4394Z" fill="#047857"/>
<path d="M76.6122 107.271C77.7493 113.414 80.3536 118.899 84.095 123.331C84.6086 123.945 83.8383 124.867 83.3247 124.252C79.4366 119.689 76.7223 113.984 75.5485 107.622C75.3651 106.788 76.4288 106.437 76.6122 107.271Z" fill="#047857"/>
<path d="M84.6803 105.868C90.1456 110.958 96.308 114.776 102.947 117.233C103.607 117.496 103.351 118.769 102.654 118.505C95.8311 116.004 89.5221 112.055 83.91 106.833C83.3598 106.263 84.1301 105.341 84.6803 105.868Z" fill="#047857"/>
<path d="M73.6373 19.0709C74.9945 14.8584 75.1412 10.4704 74.1142 6.12622C73.9308 5.2925 74.9945 4.94145 75.1779 5.77518C76.2783 10.3387 76.0949 14.9901 74.7011 19.422C74.4443 20.2118 73.3806 19.8608 73.6373 19.0709Z" fill="#064E3B"/>
<path d="M83.0299 17.6216C84.9739 14.8133 87.3948 12.5315 90.1092 10.908C90.7327 10.513 91.2829 11.6539 90.6594 12.0488C87.9817 13.6285 85.6709 15.8226 83.8002 18.587C83.36 19.2013 82.5897 18.2799 83.0299 17.6216Z" fill="#064E3B"/>
<path d="M202.644 26.2661C204.295 24.0721 205.028 21.2199 204.625 18.2799C204.515 17.4462 205.579 17.0951 205.689 17.9289C206.166 21.3515 205.359 24.6426 203.414 27.1876C202.938 27.8458 202.167 26.9243 202.644 26.2661Z" fill="#064E3B"/>
<path d="M211.778 28.2896C213.135 26.4466 214.456 24.6475 215.813 22.8045C216.29 22.1463 217.06 23.1117 216.583 23.726C215.226 25.569 213.905 27.3681 212.548 29.2111C212.108 29.8693 211.338 28.9478 211.778 28.2896Z" fill="#064E3B"/>
<path d="M158.555 12.5777C161.086 17.8872 164.424 22.4946 168.496 26.1806C169.046 26.7071 168.496 27.848 167.946 27.3215C163.727 23.46 160.243 18.7648 157.602 13.2359C157.272 12.4899 158.225 11.8317 158.555 12.5777Z" fill="#064E3B"/>
<path d="M30.875 63.7433C31.3885 60.54 32.0121 57.1612 32.8191 53.6508C35.4967 42.198 39.3115 32.6321 43.0896 24.9969C44.19 24.6898 45.7672 24.251 47.7113 23.9877C50.389 23.5928 54.7172 22.9346 59.5957 24.602C60.7695 24.9969 60.256 24.9531 65.4279 27.4981C70.5998 30.0432 70.8933 29.9554 72.874 31.0085C76.2486 32.7638 79.2931 35.3088 85.272 40.2673C86.996 41.7154 89.3802 43.7339 92.1679 46.235C92.3513 47.6392 92.5714 49.7016 92.5347 52.2028C92.4613 56.152 91.7644 59.0042 90.774 63.129C89.1968 69.5794 88.0964 73.9674 87.3994 76.7319C86.0056 77.785 84.5017 78.8381 82.7777 79.8035C77.0923 83.0945 71.7002 84.4109 67.5554 84.9375C63.3004 84.5426 59.9259 83.6211 57.6517 82.8751C47.6746 79.5841 40.8154 73.397 36.5605 69.4916C34.0295 67.2098 32.0855 65.1475 30.875 63.7433Z" fill="white"/>
<path d="M185.886 79.8438C182.952 76.07 179.834 71.5504 176.863 66.2408C175.396 63.608 174.112 61.063 172.975 58.6057C175.212 54.6125 177.45 50.6194 179.724 46.6702C184.749 44.3445 189.774 42.0189 194.799 39.6493C199.568 45.6171 204.373 51.5848 209.141 57.5964C207.894 62.4232 206.647 67.2062 205.437 72.033C202.979 73.525 200.155 75.0169 196.927 76.3772C192.819 78.0447 189.114 79.1417 185.886 79.8438Z" fill="white"/>
<path d="M30.5055 63.3464C31.7526 49.217 36.9612 36.36 42.61 24.0296C42.9401 23.2837 43.8938 23.9419 43.5637 24.6878C38.0249 36.7549 32.8163 49.4364 31.6059 63.3464C31.5325 64.1802 30.4321 64.224 30.5055 63.3464Z" fill="#191D23"/>
<path d="M31.5338 62.9952C40.5205 74.7113 52.8451 82.3026 66.0133 84.3649C66.7102 84.4527 66.7102 85.7691 66.0133 85.6813C52.5516 83.5751 39.9336 75.9399 30.7268 63.9606C30.2866 63.3024 31.0569 62.3809 31.5338 62.9952Z" fill="#191D23"/>
<path d="M66.0858 84.5416C72.0647 73.791 74.8524 61.2851 77.53 48.9547C77.7134 48.121 78.7772 48.472 78.5938 49.3057C75.8794 61.7677 73.055 74.3614 67.0395 85.1998C66.636 85.9019 65.6823 85.2437 66.0858 84.5416Z" fill="#191D23"/>
<path d="M43.894 24.0744C50.6065 26.4878 57.0622 29.6911 63.2245 33.6842C66.269 35.6588 69.2034 37.8528 72.0645 40.2223C74.6321 42.3286 77.3098 44.5226 78.7036 47.9453C79.0337 48.6913 78.0801 49.3495 77.7499 48.6035C76.246 44.9614 73.1649 42.6796 70.4505 40.4856C67.7729 38.3355 64.9852 36.317 62.1241 34.474C56.2186 30.7003 50.0196 27.6726 43.6372 25.3469C42.9403 25.0836 43.2337 23.8111 43.894 24.0744Z" fill="#191D23"/>
<path d="M66.677 84.454C73.9397 84.103 80.909 81.2069 86.7778 76.029C87.3647 75.5463 87.9149 76.6872 87.328 77.1699C81.3125 82.4794 74.1598 85.4194 66.677 85.7704C65.9801 85.8143 65.9801 84.4979 66.677 84.454Z" fill="#191D23"/>
<path d="M86.7031 76.5966C90.041 67.4256 91.8017 57.5964 91.8384 47.5478C91.8384 46.7141 92.9388 46.7141 92.9388 47.5478C92.8654 57.8158 91.0681 67.8644 87.6201 77.2548C87.3633 78.0446 86.4463 77.3864 86.7031 76.5966Z" fill="#191D23"/>
<path d="M78.0077 47.8151C82.5561 44.3047 87.9481 45.27 92.8999 46.8497C93.5969 47.0691 93.3034 48.3417 92.6065 48.1223C87.9481 46.6303 82.8862 45.665 78.5946 48.956C77.971 49.3948 77.4208 48.2539 78.0077 47.8151Z" fill="#191D23"/>
<path d="M43.3087 23.8545C49.8378 22.0993 56.6236 22.6697 62.8593 25.6097C63.5195 25.9169 63.2261 27.1894 62.5658 26.8822C56.5136 24.03 49.9478 23.3718 43.6021 25.127C42.9052 25.3025 42.6117 24.03 43.3087 23.8545Z" fill="#191D23"/>
<path d="M63.1498 25.6987C74.0439 30.6133 84.1677 37.678 93.0443 46.7174C93.5945 47.2878 92.7875 48.2093 92.274 47.6389C83.5441 38.775 73.6037 31.7981 62.8931 26.9712C62.1961 26.6641 62.4896 25.3915 63.1498 25.6987Z" fill="#191D23"/>
<path d="M185.041 79.9785C180.383 73.3965 176.128 66.4195 172.313 59.1354C171.946 58.4333 172.9 57.7751 173.267 58.4772C177.045 65.6735 181.263 72.5628 185.811 79.057C186.288 79.6714 185.518 80.6367 185.041 79.9785Z" fill="#191D23"/>
<path d="M185.557 78.8371C192.16 77.5645 198.505 75.0634 204.411 71.4213C205.034 71.0264 205.585 72.1673 204.961 72.5622C198.945 76.292 192.526 78.7932 185.814 80.1096C185.154 80.2412 184.86 78.9687 185.557 78.8371Z" fill="#191D23"/>
<path d="M172.349 57.7303C178.071 54.6148 183.72 51.3677 189.332 47.945C189.955 47.5501 190.506 48.691 189.882 49.0859C184.27 52.4647 178.621 55.7118 172.899 58.8712C172.239 59.2223 171.689 58.0814 172.349 57.7303Z" fill="#191D23"/>
<path d="M204.704 72.037C199.789 64.1825 195.021 56.1962 190.399 48.0784C190.656 48.1661 190.913 48.2539 191.169 48.2978C190.766 48.5611 190.362 48.8682 189.922 49.1315C189.299 49.5703 188.748 48.4294 189.372 47.9906C189.775 47.7273 190.179 47.4202 190.619 47.1569C190.876 46.9814 191.206 47.113 191.389 47.3763C195.974 55.4942 200.743 63.5243 205.695 71.335C206.062 72.037 205.108 72.6953 204.704 72.037Z" fill="#191D23"/>
<path d="M204.592 71.289C206.243 66.6816 207.453 61.9425 208.26 57.0279C208.407 56.1942 209.471 56.5452 209.324 57.379C208.517 62.3813 207.233 67.252 205.546 71.9472C205.289 72.6932 204.336 72.035 204.592 71.289Z" fill="#191D23"/>
<path d="M190.765 47.0672C192.196 44.7854 193.443 42.4159 194.544 39.8708C194.874 39.1249 195.827 39.7831 195.497 40.529C194.397 43.0741 193.15 45.4436 191.719 47.7254C191.316 48.3836 190.362 47.7254 190.765 47.0672Z" fill="#191D23"/>
<path d="M195.492 39.9578C200.261 45.2234 204.736 50.7523 208.991 56.5884C209.468 57.2466 208.661 58.1681 208.22 57.5099C203.966 51.6738 199.491 46.101 194.722 40.8792C194.209 40.3088 194.979 39.3873 195.492 39.9578Z" fill="#191D23"/>
<path d="M172.461 57.3794C174.809 53.7373 177.156 50.0513 179.504 46.4093C179.944 45.7511 180.897 46.4093 180.457 47.0675C178.11 50.7095 175.762 54.3955 173.415 58.0376C172.975 58.6958 172.021 58.0814 172.461 57.3794Z" fill="#191D23"/>
<path d="M179.724 45.9261C184.639 43.6882 189.554 41.4503 194.469 39.2124C195.129 38.9052 195.423 40.1778 194.763 40.4849C189.848 42.7228 184.932 44.9607 180.017 47.1986C179.357 47.5058 179.063 46.2333 179.724 45.9261Z" fill="#191D23"/>
<path d="M42.0996 75.1962C46.758 60.4524 51.4531 45.7086 56.1115 30.9209C59.5961 29.7362 63.1175 28.5953 66.6021 27.4105C69.2064 28.8147 71.8107 30.2627 74.415 31.6669C71.4439 33.2027 68.4728 34.7385 65.5017 36.2743C60.7332 51.1937 55.9648 66.1569 51.1963 81.0762C49.8758 80.3741 48.482 79.5842 47.0515 78.6628C45.1808 77.5657 43.5668 76.3371 42.0996 75.1962Z" fill="#047857"/>
<path d="M75.6597 83.8828C78.6675 77.3885 81.9321 68.3053 83.2892 57.028C83.7294 53.3421 83.9128 49.8317 83.9128 46.6723C78.0806 41.3189 70.9646 35.6583 62.4181 30.3927C57.6497 27.4527 53.0279 24.9954 48.7363 22.9769C51.1206 22.9769 53.5048 22.9769 55.889 22.9769C60.9876 25.5219 66.6363 28.7252 72.6152 32.8061C79.1077 37.238 84.6831 41.8454 89.3415 46.1457C88.4612 51.4114 87.5075 56.8086 86.4804 62.2498C85.3433 68.2614 84.1696 74.0975 82.9958 79.8458C82.3355 80.6357 81.2351 81.7327 79.6579 82.6103C78.0439 83.4879 76.6134 83.7951 75.6597 83.8828Z" fill="#047857"/>
<path d="M46.5365 78.5332C45.7295 79.3231 46.7932 84.0622 49.7277 85.5541C51.9652 86.695 54.8629 85.7735 56.8803 83.1407C55.7432 82.7458 54.0193 82.1314 51.9652 81.1222C48.2971 79.3231 47.0867 78.0067 46.5365 78.5332Z" fill="#047857"/>
<path d="M51.6367 83.1371C53.3607 84.4535 55.855 86.7353 58.0191 90.3774C61.7238 96.6522 62.0173 103.059 61.9806 105.735C62.6041 105.955 66.3089 107.315 68.363 105.165C71.1507 102.269 68.583 95.3358 68.0328 93.8878C66.4189 89.5436 63.7779 87.1741 62.9343 86.472C58.2392 82.5228 53.1039 82.9616 51.6367 83.1371Z" fill="#047857"/>
<path d="M32.8546 94.812C34.6886 95.163 35.7156 91.2577 39.5304 87.3962C42.9417 83.9735 46.7564 82.4377 49.7275 81.6479C48.4804 80.507 46.1329 78.6201 42.8683 78.1374C38.1365 77.4353 31.6808 79.5855 30.1402 84.9828C29.0031 89.0636 30.8005 94.4609 32.8546 94.812Z" fill="#047857"/>
<path d="M192.636 78.1758C187.905 70.6284 183.136 63.0809 178.404 55.5335C180.092 51.8476 181.779 48.1616 183.503 44.4757C184.97 43.7736 186.437 43.0276 187.905 42.3255C186.841 45.3972 185.777 48.5127 184.677 51.5843C188.895 59.8777 193.15 68.1272 197.368 76.4206C195.791 76.991 194.214 77.5615 192.636 78.1758Z" fill="#064E3B"/>
<path d="M207.014 65.9805C202.172 59.5301 197.294 53.1235 192.452 46.6731C186.803 48.6477 181.155 50.6223 175.506 52.597C176.46 51.1489 177.413 49.7009 178.367 48.2528C183.686 46.1466 188.968 44.0403 194.286 41.934C198.871 48.1212 203.42 54.2644 208.005 60.4515C207.711 62.2945 207.381 64.1375 207.014 65.9805Z" fill="#064E3B"/>
<path d="M197.368 76.5977C197.552 77.5192 200.266 78.4407 202.1 76.7733C203.274 75.7201 203.971 73.6578 203.457 73.0434C202.504 71.9025 197.111 75.1936 197.368 76.5977Z" fill="#064E3B"/>
<path d="M194.505 90.7713C195.312 91.2979 196.926 89.6304 197.366 89.1916C197.806 88.7528 199.347 87.0854 200.411 82.3024C200.961 79.889 201.768 76.2908 200.924 75.8081C199.971 75.2377 197.073 78.8359 195.496 82.6973C194.285 85.769 193.442 90.0692 194.505 90.7713Z" fill="#064E3B"/>
<path d="M215.785 75.1939C215.858 76.247 213.877 77.0808 213.327 77.3002C212.813 77.5196 210.869 78.2655 206.724 77.1685C204.634 76.5981 201.553 75.7643 201.516 74.7112C201.479 73.4826 205.514 72.2978 209.145 72.5172C212.043 72.6927 215.674 73.8336 215.785 75.1939Z" fill="#064E3B"/>
<path opacity="0.09" d="M43.6016 24.2501C45.7657 25.1716 48.9569 26.5319 52.7717 28.4626C59.2641 31.7097 63.8491 33.9915 68.9477 38.1163C71.4786 40.1786 74.8899 43.338 78.5213 47.9455C80.3186 52.2457 82.5194 58.6523 83.3631 66.814C83.8766 71.7725 83.8032 76.1605 83.5098 79.7148C84.8303 78.7934 86.1141 77.8719 87.4346 76.9943C88.7551 72.8695 90.1123 67.8233 91.066 61.9872C92.0196 56.3266 92.4231 51.1926 92.5332 46.8485C88.5717 42.7237 85.0504 39.6521 82.4094 37.5019C69.6813 27.1023 60.9147 24.645 58.9706 24.1184C55.9628 23.3286 53.652 23.1969 52.6249 23.1531C48.7735 22.9775 45.6557 23.6796 43.6016 24.2501Z" fill="#353535"/>
<path opacity="0.09" d="M173.088 58.4358C175.435 54.4426 177.746 50.4495 180.094 46.5003C184.972 44.2185 189.887 41.9806 194.766 39.6989C199.424 45.7543 204.083 51.7659 208.741 57.8214C207.604 62.4728 206.43 67.1241 205.293 71.7754C200.525 64.0524 195.756 56.3295 190.988 48.6066C185.009 51.8537 179.03 55.1447 173.088 58.4358Z" fill="#353535"/>
<path d="M175.174 18.6013C174.33 18.5135 173.743 21.4974 172.826 21.4535C172.093 21.4096 171.579 19.435 171.542 19.1717C171.102 17.3726 171.322 15.5297 172.826 10.7028C173.266 9.29865 173.853 7.49955 174.624 5.43717C174.22 2.01451 173.487 -2.72457 172.166 -8.29737C170.515 -15.1866 167.728 -26.5077 160.355 -38.1799C158.081 -41.7781 154.669 -46.561 149.718 -51.4756C148.067 -56.2147 147.847 -60.164 147.92 -62.6213C147.957 -64.0693 148.104 -70.6075 150.121 -71.2218C151.478 -71.6167 153.092 -69.2472 153.899 -68.0624C162.116 -55.6443 166.26 -49.4571 167.911 -45.859C171.763 -37.6095 174.88 -30.8958 177.521 -20.8033C179.465 -13.4314 180.382 -6.98096 180.896 -2.24189C181.74 -0.574432 182.913 1.7951 184.271 4.69121C187.975 12.5897 189.296 16.144 190.103 20.0932C190.946 24.1741 191.093 27.6845 190.249 28.0794C189.626 28.3427 188.856 26.9824 188.159 27.3335C187.132 27.86 188.232 31.5021 187.132 32.292C186.728 32.5991 185.921 32.5552 184.271 31.2388C183.133 34.091 182.4 34.6176 181.923 34.5737C180.933 34.3982 180.456 31.1511 180.236 27.4651C179.942 29.2642 179.209 33.0379 178.292 33.0379C177.521 33.0379 176.714 30.2735 176.494 28.0794C176.164 25.0517 176.898 22.8577 175.981 19.7861C175.797 19.3472 175.541 18.689 175.174 18.6013Z" fill="white"/>
<path d="M173.891 6.01094C173.781 0.218738 172.24 -5.35407 170.773 -10.8391C169.343 -16.017 167.729 -21.151 165.748 -26.0656C162.08 -35.1927 157.128 -43.53 150.636 -50.0681C150.085 -50.5947 150.892 -51.5601 151.406 -50.9896C158.155 -44.2321 163.217 -35.4999 166.958 -26.0217C168.902 -21.1071 170.516 -16.017 171.91 -10.8391C173.377 -5.39795 174.881 0.174857 174.955 5.96706C175.028 6.84467 173.928 6.84467 173.891 6.01094Z" fill="#191D23"/>
<path d="M174.808 6.70998C173.561 9.91325 172.387 13.6431 172.204 17.1974C172.167 17.6801 172.094 19.7424 172.387 20.0057C173.304 20.7517 173.561 19.4792 173.781 18.9526C174.184 18.0311 174.478 17.3729 175.248 16.8463C175.872 16.4514 176.422 17.5484 175.798 17.9872C174.514 18.8648 174.624 21.2783 173.157 21.9365C171.91 22.5069 171.47 21.2783 171.213 20.0057C170.333 15.4861 172.24 10.0888 173.781 6.05178C174.184 5.26193 175.101 5.96402 174.808 6.70998Z" fill="#191D23"/>
<path d="M176.056 17.2406C177.304 20.6632 177.01 24.1737 177.12 27.8157C177.157 28.6495 177.01 30.5802 177.414 31.2384C178.147 32.3354 178.697 30.0098 178.881 29.2638C179.394 26.8942 179.504 24.5247 179.358 22.1113C179.284 21.2776 180.385 21.2776 180.458 22.1113C180.568 23.7787 180.421 35.407 177.304 33.5202C176.02 32.7303 176.093 29.6148 176.056 28.2545C175.946 24.788 176.35 21.2337 175.139 17.9427C174.846 17.1528 175.8 16.4507 176.056 17.2406Z" fill="#191D23"/>
<path d="M180.566 22.0255C180.786 23.6052 180.969 25.1849 181.079 26.8084C181.189 28.6075 180.969 30.626 181.446 32.3374C181.85 33.9171 182.07 34.2242 182.62 32.82C183.023 31.8108 183.17 30.7577 183.28 29.7045C183.464 27.7299 183.61 25.4043 183.097 23.4735C182.877 22.6398 183.94 22.3326 184.161 23.1225C184.747 25.4481 184.601 28.3004 184.271 30.6699C184.087 31.9424 183.5 35.2773 182.07 35.2773C180.823 35.2773 180.309 32.7762 180.199 31.723C179.832 28.6514 179.906 25.492 179.502 22.4204C179.392 21.5428 180.456 21.1918 180.566 22.0255Z" fill="#191D23"/>
<path d="M184.563 23.1678C184.71 24.5281 184.71 25.9322 184.71 27.2925C184.746 28.4773 184.673 31.6367 185.92 31.505C186.837 31.4173 186.764 30.4958 186.837 29.5304C186.874 28.8722 186.874 28.1701 186.874 27.5119C186.874 25.8884 186.8 24.3087 186.544 22.6851C186.397 21.8514 187.461 21.5003 187.607 22.334C187.974 24.4842 189.221 33.3041 185.92 33.3919C182.876 33.4797 183.683 25.1424 183.462 23.1239C183.389 22.334 184.49 22.334 184.563 23.1678Z" fill="#191D23"/>
<path d="M188.489 27.0292C188.93 27.0731 189.333 27.117 189.773 27.1609C189.847 26.766 189.92 26.371 189.957 25.9322C190.03 25.1424 190.067 24.3964 190.067 23.6066C190.03 22.2024 189.847 20.7544 189.517 19.3941C188.93 16.7174 187.939 14.1723 186.839 11.715C184.821 7.15145 182.657 2.63177 180.566 -1.88791C180.236 -2.63387 181.19 -3.29208 181.52 -2.54611C183.281 1.27148 185.078 5.08907 186.839 8.90666C188.489 12.461 190.14 16.1908 190.837 20.2278C191.204 22.4218 191.974 27.468 190.067 29.0039C188.856 30.0131 187.279 28.6528 187.426 26.9854C187.462 26.1955 188.563 26.1955 188.489 27.0292Z" fill="#191D23"/>
<path opacity="0.08" d="M186.617 31.9857C186.067 31.9418 185.92 29.2212 185.553 25.9741C184.966 20.2696 184.306 13.8631 182.032 8.50969C181.298 6.75448 179.978 4.16554 177.594 1.3572C177.227 -1.75831 176.53 -6.2341 175.356 -11.4997C173.302 -20.7146 170.294 -33.791 161.784 -46.0336C159.473 -49.3246 155.915 -53.8882 150.67 -58.3201C150.523 -62.6204 150.377 -66.8767 150.193 -71.177C152.468 -69.1146 155.769 -65.8236 159.18 -61.1284C163.655 -54.9413 166.553 -47.9204 172.165 -34.142C176.64 -23.128 177.85 -18.8716 178.584 -15.8C179.978 -10.1833 180.675 -5.31261 181.042 -1.80219C183.536 2.89301 185.37 7.06164 186.654 10.3527C188.891 16.0571 192.486 25.272 190.285 27.5538C189.661 28.1681 188.744 28.1242 188.047 27.9926C187.717 29.8355 187.13 32.0296 186.617 31.9857Z" fill="#353535"/>
<path opacity="0.1" d="M185.224 6.27344C183.28 3.81614 181.336 1.31496 179.392 -1.14234C179.208 -3.2486 178.878 -6.3641 178.108 -10.0939C176.641 -17.1148 174.513 -22.0294 173.67 -24.0918C171.506 -29.2696 168.681 -37.1681 165.967 -48.9719C167.177 -46.4707 173.596 -33.1311 177.191 -21.7222C178.548 -17.3342 179.282 -15.0524 179.869 -11.4981C180.602 -7.24171 180.419 -5.2671 181.373 -1.84443C182.436 1.8854 184.05 4.60598 185.224 6.27344Z" fill="#353535"/>
<path d="M83.3301 28.2078C82.1564 27.8129 82.1197 23.9953 82.3031 21.8452C82.5965 18.0276 83.8437 15.1754 84.3939 13.9467C86.7414 8.76882 89.0156 3.8981 91.3265 -0.797096C91.6199 -3.95648 92.1334 -8.25676 93.1605 -13.2591C94.9578 -22.0352 97.2687 -28.0029 100.46 -36.2085C105.522 -49.1532 108.53 -56.569 114.949 -64.4675C117.37 -67.4075 119.57 -69.6015 121.074 -71.0057C121.624 -70.2597 124.999 -65.6084 124.339 -58.9824C123.825 -53.5852 120.964 -50.2941 120.157 -49.4165C118.397 -47.6613 115.719 -44.8091 112.968 -40.7721C107.172 -32.1715 104.751 -23.571 101.23 -10.6702C100.276 -7.15975 98.9927 -2.20126 97.7088 3.8981C98.4058 6.61868 98.9927 8.76882 99.3961 10.1291C100.607 14.2977 101.377 16.404 100.827 19.0807C100.68 19.7828 100.387 21.0992 99.6529 21.3625C98.8093 21.6258 97.5254 20.3971 96.5351 18.1592C95.9849 21.7574 95.7281 24.7413 95.6181 26.9792C95.4713 30.2263 95.5447 32.5959 94.9578 32.7714C94.3342 32.9469 93.3806 30.3141 93.2705 30.0508C92.3535 27.5935 92.3535 25.2678 92.5002 23.8198C92.7937 31.9815 92.0234 34.0439 91.1797 34.3072C90.4828 34.5266 89.6025 33.4296 89.3457 33.0785C87.6217 30.8845 88.5021 27.6813 88.5754 27.4618C87.8051 32.3326 86.9982 32.6397 86.7414 32.6397C86.0812 32.6836 85.4209 30.9284 85.1642 29.9191C84.8707 28.6905 85.0541 27.5935 85.1642 27.023C84.5773 27.6813 83.8803 28.3833 83.3301 28.2078Z" fill="white"/>
<path d="M97.3739 5.91598C97.484 0.299299 98.8412 -5.14186 100.235 -10.4953C101.629 -15.8048 103.206 -21.0265 105.15 -26.0728C108.782 -35.5071 113.697 -44.2393 120.262 -51.0407C120.813 -51.6111 121.583 -50.6458 121.033 -50.1192C114.687 -43.5372 109.919 -35.1999 106.361 -26.1167C104.417 -21.2021 102.839 -16.0681 101.482 -10.8902C100.015 -5.40515 98.5477 0.167658 98.4377 5.95986C98.4377 6.74971 97.3373 6.74971 97.3739 5.91598Z" fill="#191D23"/>
<path d="M98.5129 5.91148C100.053 10.0362 101.997 15.609 100.934 20.2165C100.677 21.3574 100.2 22.2789 99.0997 21.7523C97.6692 21.0941 97.8159 18.6807 96.5321 17.8031C95.9085 17.3643 96.4588 16.2234 97.0823 16.6622C97.6692 17.0571 97.9993 17.5837 98.3295 18.2857C98.4762 18.6368 98.6229 19.4266 98.8797 19.6899C100.31 20.9624 100.053 18.198 100.053 17.4081C99.9801 13.7222 98.7696 9.86071 97.5225 6.5258C97.2657 5.82372 98.2194 5.16551 98.5129 5.91148Z" fill="#191D23"/>
<path d="M97.2639 17.8066C96.1268 20.966 96.4569 24.3887 96.3836 27.7236C96.3469 29.1277 96.4936 32.5504 95.1364 33.3841C92.092 35.271 91.9086 23.5988 92.0186 21.9752C92.092 21.1415 93.1924 21.1415 93.119 21.9752C92.9723 24.257 93.0457 26.5388 93.4858 28.7767C93.5959 29.3471 93.9993 31.98 94.9164 31.4973C95.3198 31.2779 95.2832 28.2501 95.2832 27.7236C95.3565 24.0815 95.0998 20.5711 96.3102 17.1484C96.6036 16.3586 97.5573 17.0168 97.2639 17.8066Z" fill="#191D23"/>
<path d="M93.0126 22.2832C92.6091 25.3549 92.6825 28.4704 92.3157 31.4981C92.2056 32.5951 91.7288 35.0963 90.445 35.1402C89.1245 35.1841 88.5376 32.0247 88.3542 30.8838C87.9507 28.3826 87.804 25.4426 88.3909 22.9853C88.5743 22.1955 89.638 22.5026 89.4546 23.3364C89.0144 25.0916 89.1245 27.1101 89.2345 28.953C89.3079 30.0501 89.4546 31.1909 89.7847 32.2441C90.3349 33.9115 90.555 34.2626 91.0685 32.2441C91.472 30.6205 91.2886 28.7336 91.3987 27.0662C91.5087 25.3549 91.6921 23.6435 91.9489 21.9322C92.0589 21.0985 93.1226 21.4495 93.0126 22.2832Z" fill="#191D23"/>
<path d="M89.1591 23.0723C88.939 25.0469 89.746 33.4719 86.7382 33.3403C83.5103 33.2086 84.7575 24.3887 85.0876 22.2824C85.2343 21.4487 86.298 21.7997 86.1513 22.6335C85.8945 24.2132 85.8212 25.8367 85.8212 27.4603C85.8212 28.6451 85.5277 31.3218 86.7015 31.4534C87.912 31.5851 87.8386 28.3818 87.8753 27.2409C87.912 25.8367 87.8753 24.4764 88.022 23.1161C88.1321 22.2385 89.2691 22.1947 89.1591 23.0723Z" fill="#191D23"/>
<path d="M85.3812 26.9324C85.5279 28.5559 84.024 29.9601 82.8136 28.9509C81.0162 27.4589 81.6765 22.676 82.0066 20.5697C82.5935 16.6644 84.0607 13.0662 85.638 9.55575C87.4353 5.47488 89.306 1.43788 91.1033 -2.59911C91.4335 -3.34507 92.3871 -2.68687 92.057 -1.9409C89.9662 2.71041 87.8021 7.31785 85.7847 12.013C84.7943 14.3387 83.8773 16.7521 83.3638 19.3411C83.0703 20.7014 82.8869 22.1055 82.8503 23.5536C82.8503 24.0801 82.8503 24.6067 82.8869 25.1771C82.8869 25.7476 82.9603 26.318 83.0703 26.8446C83.107 27.5028 83.5472 27.5467 84.3175 26.9762C84.2074 26.0986 85.3078 26.0986 85.3812 26.9324Z" fill="#191D23"/>
<path opacity="0.09" d="M87.0351 32.247C88.0622 31.8082 87.3285 26.5426 87.1451 24.568C86.7417 20.0483 87.5853 13.203 93.5642 3.46152C95.1415 -5.92887 98.1493 -18.7419 104.312 -32.6081C109.52 -44.3681 115.426 -53.3197 120.341 -59.7262C120.708 -63.5877 121.038 -67.4492 121.405 -71.3545C119.13 -69.4676 115.976 -66.4838 112.858 -62.1396C110.144 -58.322 108.53 -54.9871 106.182 -49.6776C100.13 -35.943 97.0855 -29.0538 94.9581 -20.7166C93.7843 -16.153 92.3904 -9.57095 91.5835 -1.4092C88.6857 3.0666 86.705 7.19135 85.3845 10.3507C82.8169 16.4501 82.1566 20.3116 82.23 23.7781C82.3033 27.7274 82.8902 28.2539 83.147 28.3856C83.6972 28.6489 84.4308 28.1223 84.9076 27.6835C84.871 27.9029 84.5042 29.8775 85.6046 31.3256C85.788 31.5011 86.5216 32.4664 87.0351 32.247Z" fill="#353535"/>
<path opacity="0.09" d="M84.0977 16.5788C84.4645 16.7982 86.702 13.0244 88.3159 9.86506C92.094 2.44928 93.6346 -4.17665 94.038 -5.80022C96.459 -15.8488 99.5768 -24.3616 105.849 -41.3433C107.757 -46.4773 110.654 -53.937 114.726 -62.7569C113.552 -61.4405 111.865 -59.4659 110.067 -56.8769C108.49 -54.639 103.318 -47.0477 97.9262 -29.6272C95.8354 -22.8258 93.3778 -13.6548 91.6171 -2.37756C90.37 0.167503 88.646 3.80957 86.812 8.37313C86.005 10.4355 83.6942 16.3155 84.0977 16.5788Z" fill="#353535"/>
<path d="M116.852 -18.9611C115.495 -21.3746 113.551 -25.5432 112.781 -31.116C112.23 -35.1091 111.277 -42.0861 114.945 -47.615C115.935 -49.1069 119.566 -53.9777 124.555 -53.1878C127.893 -52.6613 131.451 -49.6774 132.111 -45.5088C132.441 -43.578 132.074 -41.9106 131.744 -40.9452C130.167 -40.0237 127.343 -38.093 125.142 -34.3193C124.041 -32.4763 123.381 -30.6772 123.014 -29.273C122.831 -29.4485 122.244 -29.9751 121.437 -29.9312C120.483 -29.8873 119.897 -29.0975 119.75 -28.8781C118.613 -27.3423 118.723 -24.1829 120.227 -23.1298C120.997 -22.6032 121.877 -22.7787 122.354 -22.9104C122.134 -21.2868 121.914 -17.8202 123.455 -14.1782C124.482 -11.7209 126.059 -9.92178 129.69 -7.2012C132.698 -4.9633 134.019 -5.13882 134.495 -5.22658C136.109 -5.57763 137.1 -7.11344 137.613 -7.90329C139.924 -11.4137 142.932 -15.9334 146.527 -21.5062C146.673 -21.4184 147.664 -20.848 148.654 -21.3746C149.351 -21.7695 149.681 -22.5154 149.901 -23.0859C150.085 -23.5686 150.378 -24.2707 150.231 -25.1044C150.085 -26.1575 149.388 -27.1229 148.434 -27.4739C147.26 -27.9127 146.306 -27.1668 146.16 -27.0351C145.866 -28.7026 145.279 -31.2038 143.886 -33.8805C142.455 -36.601 140.804 -38.4001 139.667 -39.4533C139.521 -40.5064 139.337 -42.4371 140.034 -44.6311C141.134 -48.2293 143.996 -50.5111 146.637 -51.2132C151.588 -52.4857 155.587 -48.0538 156.614 -46.869C160.135 -42.9198 162.262 -36.2939 160.465 -29.9312C159.108 -25.1921 156.1 -22.6032 154.926 -21.6817C153.496 -17.7325 152.029 -14.6609 150.855 -12.4668C147.554 -6.27971 145.279 -2.11108 141.134 -0.575267C138.604 0.34622 136.293 -0.00482253 134.752 -0.443626C132.258 0.214579 130.314 -0.0487029 128.993 -0.443626C122.904 -2.24272 118.283 -9.52686 116.852 -18.9611Z" fill="#064E3B"/>
</svg>
