<svg width="42" height="43" viewBox="0 0 42 43" fill="none" xmlns="http://www.w3.org/2000/svg">
<g clip-path="url(#clip0_626_3750)">
<path d="M9.61328 8.30582L13.9517 12.7877L17.1127 11.6677L12.9827 7.44995L9.61328 8.30582Z" fill="black"/>
<path d="M34.3302 13.8819L30.3328 17.7434L29.3984 15.1142L30.1927 13.5654L33.4921 10.4128L34.3302 13.8819Z" fill="black"/>
<path d="M26.8226 32.9039L24.3984 30.4004L27.2859 29.8113L28.9167 30.0704L32.6685 34.2265L26.8226 32.9039Z" fill="black"/>
<path d="M12.8626 28.3031L9.15386 31.5375L8.23047 28.098L11.6826 24.7117L12.8626 28.3031Z" fill="black"/>
<path d="M15.7273 2.53844C13.9582 0.787877 11.7687 0.0814071 8.97656 0.351504C9.5809 1.00311 9.97676 1.45806 10.4022 1.8843C12.8668 4.354 15.3179 6.83721 17.8197 9.26808C18.1464 9.58545 18.2974 9.8547 18.2991 10.1071L20.6684 7.86695C18.9659 6.01932 17.4154 4.20883 15.7273 2.53844Z" fill="black"/>
<path d="M33.8086 0.303132C32.8042 0.123348 31.0925 -0.0285812 29.2356 0.661854C28.0497 1.10245 27.2233 1.64855 26.3852 2.41327C24.9511 3.72155 23.6201 5.14209 22.2324 6.50101C21.8391 6.8859 21.4086 7.23281 20.676 7.87767C20.6726 7.87429 20.6693 7.87007 20.6659 7.86669L18.2966 10.1068C18.2983 10.4031 18.0957 10.6774 17.7303 10.9821C16.4549 12.0448 15.0512 12.6128 13.2129 12.0363C15.4344 15.1247 17.9337 16.157 20.8263 12.9994C23.0908 10.5271 25.5411 8.22204 27.9382 5.87219C29.7285 4.11741 31.566 2.41073 33.3824 0.682111C33.5242 0.556347 33.666 0.42974 33.8086 0.303132Z" fill="black"/>
<path d="M35.6222 20.2165C37.2344 18.644 38.8448 17.0605 40.3202 15.3632C41.7855 13.6776 42.2818 11.635 42.102 9.17456C41.6538 9.5586 41.4116 9.74092 41.198 9.95278C38.503 12.6225 35.775 15.261 33.1424 17.9915C32.6512 18.5005 32.2831 18.6187 31.9531 18.4727L35.1107 21.6184C34.882 21.1517 35.0854 20.7398 35.6222 20.2165Z" fill="black"/>
<path d="M39.5663 26.1442C38.2757 24.8106 36.9851 23.471 35.6102 22.2286C35.3671 22.0091 35.2025 21.8091 35.1097 21.6192L31.9521 18.4734C31.7216 18.3721 31.5089 18.1417 31.2861 17.826C30.3872 16.5532 29.5777 15.2491 30.4437 13.3914C26.6134 16.0054 26.7915 18.6279 29.2351 20.9119C32.7488 24.1969 36.0668 27.6913 39.4734 31.092C40.2862 31.904 41.1168 32.6991 42.1001 33.6596C42.4403 30.529 41.5093 28.1513 39.5663 26.1442Z" fill="black"/>
<path d="M23.2614 32.5253C23.6319 32.0906 24.5224 31.1622 26.0029 30.6456C27.4226 30.1502 28.6465 30.2903 29.2077 30.3907C28.8507 30.0041 28.3029 29.4673 27.5543 28.9339C26.6621 28.2983 25.7134 27.5783 24.6516 27.607C23.7206 27.6324 22.8014 28.1109 21.8687 29.0445C16.5343 34.3865 13.7548 36.9439 9.50755 41.4292C9.10493 41.8547 8.77828 42.194 8.59766 42.3822C10.696 42.5215 12.2094 42.0733 13.1277 41.696C13.5531 41.5212 14.6225 40.8789 17.8324 38.1391C18.988 37.1533 20.0033 36.0028 21.0643 34.941C21.0998 34.9689 21.1352 34.9976 21.1707 35.0263L23.3796 32.6376C23.3382 32.6004 23.3002 32.5633 23.2614 32.5253Z" fill="black"/>
<path d="M23.295 32.6394L21.0684 35.0289C24.7906 38.0042 27.1363 42.7824 33.2506 42.1992C29.8347 38.9192 26.6847 35.8941 23.295 32.6394Z" fill="black"/>
<path d="M6.26174 22.5535C4.98469 23.8525 3.67135 25.116 2.42974 26.4479C0.660608 28.3454 -0.164877 30.5931 0.0706135 33.5768C3.4578 30.1753 6.62131 26.9991 9.83716 23.7689L7.49828 21.241C6.96146 21.8132 6.61878 22.1905 6.26174 22.5535Z" fill="black"/>
<path d="M13.1905 21.996C9.19052 17.9927 5.1838 13.9944 1.17539 9.99951C0.86056 9.68552 0.505215 9.4129 0.0317007 9.00269C-0.323646 12.3359 0.847056 14.798 2.99602 16.8726C4.48239 18.3075 5.98312 19.7272 7.54631 21.2195C7.52943 21.2372 7.51339 21.2541 7.49735 21.271L9.83622 23.7753C9.84551 23.766 9.85479 23.7567 9.86492 23.7475C10.2321 23.9981 11.813 25.1351 12.1236 27.1583C12.2409 27.9188 12.1422 28.5746 12.0257 29.0329C12.3422 28.8042 12.7752 28.4539 13.2141 27.9568C13.5889 27.5305 16.4021 25.2102 13.1905 21.996Z" fill="black"/>
<path d="M15.8528 22.7306C15.0358 21.743 14.455 20.9218 13.7562 20.2161C10.0896 16.5158 6.38759 12.8509 2.7092 9.16073C1.09706 7.54353 1.02278 5.66804 2.87042 3.72925C3.58617 4.62479 4.22681 5.5811 5.01769 6.38886C7.92292 9.35402 10.9016 12.2466 13.8051 15.2134C15.776 17.2265 16.5728 19.9258 15.8528 22.7306Z" fill="black"/>
<path d="M26.042 20.1589C26.4564 20.5033 26.7004 20.6755 26.9097 20.884C31.0388 25.0038 35.1704 29.1211 39.286 33.2544C41.0527 35.0286 41.1658 36.9455 39.3612 38.7188C37.6435 36.8982 35.9444 35.0523 34.1947 33.2561C32.3454 31.357 30.4252 29.5271 28.5775 27.6271C26.6312 25.6267 25.6816 23.249 26.042 20.1589Z" fill="black"/>
<path d="M19.9512 16.3944C20.2533 15.985 20.3985 15.725 20.6011 15.5225C24.8138 11.3056 29.0256 7.08701 33.2551 2.88784C34.8833 1.27148 36.7833 1.23181 38.5862 3.09885C37.9658 3.56055 37.2695 3.9657 36.7132 4.51349C33.5674 7.61032 30.4723 10.7586 27.3248 13.8546C25.3413 15.8052 22.9492 16.6594 19.9512 16.3944Z" fill="black"/>
<path d="M3.6875 39.7107C5.63811 37.7998 7.53132 35.9589 9.40849 34.1028C11.2916 32.2408 13.1316 30.3358 15.0409 28.5017C16.9653 26.6524 19.3151 25.9594 22.179 26.1451C21.892 26.5409 21.7359 26.8313 21.5122 27.055C17.3291 31.244 13.1451 35.4314 8.9468 39.6052C7.27641 41.2655 5.59759 41.3515 3.6875 39.7107Z" fill="black"/>
<path d="M26.2812 32.35C28.8539 32.1558 31.0544 32.5888 32.8488 34.4027C34.6121 36.1845 36.4124 37.9292 38.1934 39.6865C36.8615 41.0758 35.2248 41.3265 33.9047 40.0781C31.3228 37.6354 28.8995 35.0239 26.2812 32.35Z" fill="black"/>
<path d="M4.06641 2.70254C5.373 1.48879 6.83321 1.22376 8.09254 2.42738C10.6635 4.88442 13.0395 7.54487 15.5379 10.1648C13.6886 10.4341 11.722 10.2374 10.2457 8.94684C8.06553 7.04182 6.14869 4.8363 4.06641 2.70254Z" fill="black"/>
<path d="M2.38875 38.2477C1.32608 36.8381 1.1387 35.3256 2.24019 34.1456C4.97577 31.2176 8.60098 27.6835 9.61215 26.7331C9.75902 26.5955 9.87465 26.4858 9.92952 26.4343C10.0789 27.0927 10.2401 28.2009 9.94893 29.4923C9.81726 30.0773 9.68559 30.9728 8.85251 31.9325C6.89852 34.1844 4.59088 36.13 2.38875 38.2477Z" fill="black"/>
<path d="M39.6907 4.29565C40.7634 5.57355 41.0285 7.21692 39.9354 8.36737C37.4784 10.9519 34.8424 13.3675 32.2225 15.9065C31.8156 13.9356 32.1617 11.9673 33.4168 10.5037C35.3252 8.27706 37.5822 6.34924 39.6907 4.29565Z" fill="black"/>
</g>
<defs>
<clipPath id="clip0_626_3750">
<rect width="42.0195" height="42.5163" fill="white" transform="translate(-0.00976562 0.0495605)"/>
</clipPath>
</defs>
</svg>
