<svg width="17" height="18" viewBox="0 0 17 18" fill="none" xmlns="http://www.w3.org/2000/svg">
<path d="M8.83319 1.07764L11.2589 6.00884L16.6813 6.79979C16.7501 6.81002 16.8147 6.83926 16.8678 6.88422C16.9209 6.92918 16.9604 6.98807 16.9818 7.05426C17.0033 7.12046 17.0058 7.19132 16.9891 7.25887C16.9725 7.32642 16.9373 7.38798 16.8875 7.43661L12.9646 11.2742L13.8908 16.694C13.9027 16.7625 13.8952 16.833 13.8692 16.8975C13.8431 16.9619 13.7995 17.0178 13.7432 17.0587C13.687 17.0997 13.6205 17.124 13.5511 17.1291C13.4817 17.1341 13.4124 17.1196 13.3508 17.0872L8.50055 14.5289L3.65029 17.088C3.58879 17.1205 3.51941 17.1351 3.45002 17.1301C3.38064 17.1252 3.31404 17.1008 3.25779 17.0599C3.20154 17.019 3.1579 16.9631 3.13183 16.8986C3.10576 16.8341 3.0983 16.7636 3.1103 16.6951L4.03652 11.2742L0.112475 7.43661C0.0627202 7.38798 0.0275312 7.32642 0.010871 7.25887C-0.00578921 7.19132 -0.00325878 7.12046 0.0181773 7.05426C0.0396134 6.98807 0.0791038 6.92918 0.132201 6.88422C0.185298 6.83926 0.249894 6.81002 0.318712 6.79979L5.74112 6.00884L8.16791 1.07764C8.19818 1.01515 8.24543 0.962447 8.30426 0.925573C8.3631 0.888698 8.43112 0.869141 8.50055 0.869141C8.56999 0.869141 8.63801 0.888698 8.69685 0.925573C8.75568 0.962447 8.80293 1.01515 8.83319 1.07764Z" fill="#485AFF"/>
</svg>
