<svg width="16" height="13" viewBox="0 0 16 13" fill="none" xmlns="http://www.w3.org/2000/svg">
<path d="M15.3086 1.84066C14.7683 2.07965 14.198 2.22901 13.5976 2.31864C14.198 1.96015 14.6782 1.39255 14.8884 0.705454C14.318 1.03407 13.6877 1.27305 12.9973 1.42242C12.457 0.854823 11.6765 0.496338 10.836 0.496338C9.21512 0.496338 7.89437 1.81078 7.89437 3.42396C7.89437 3.66295 7.92439 3.87207 7.98442 4.08119C5.55304 3.96169 3.36179 2.79662 1.89095 1.00419C1.65082 1.4523 1.50073 1.93028 1.50073 2.468C1.50073 3.48371 2.01102 4.37992 2.82148 4.91765C2.34121 4.88778 1.89095 4.76828 1.47072 4.55917V4.58904C1.47072 6.02298 2.4913 7.21793 3.84207 7.48679C3.60193 7.54654 3.33177 7.57641 3.06162 7.57641C2.88152 7.57641 2.6714 7.54654 2.4913 7.51666C2.88152 8.68174 3.96213 9.54808 5.25287 9.54808C4.23229 10.3248 2.97157 10.8028 1.59078 10.8028C1.35065 10.8028 1.11051 10.8028 0.900391 10.7729C2.22114 11.6094 3.75201 12.0873 5.43297 12.0873C10.8661 12.0873 13.8378 7.60629 13.8378 3.7227C13.8378 3.60321 13.8378 3.45384 13.8378 3.33434C14.4081 2.94598 14.9184 2.43813 15.3086 1.84066Z" fill="#27272A"/>
</svg>
