<svg width="18" height="18" viewBox="0 0 18 18" fill="none" xmlns="http://www.w3.org/2000/svg">
<path d="M9.04357 1.58597C11.3758 1.58597 11.652 1.59467 12.5733 1.63648C13.1273 1.64322 13.676 1.74446 14.1955 1.93577C14.5723 2.08039 14.9145 2.30192 15.2001 2.58611C15.4856 2.8703 15.7082 3.21085 15.8535 3.58584C16.0458 4.10292 16.1475 4.64899 16.1543 5.2003C16.1958 6.11723 16.205 6.3921 16.205 8.7132C16.205 11.0343 16.1963 11.3092 16.1543 12.2261C16.1475 12.7774 16.0458 13.3235 15.8535 13.8406C15.7082 14.2156 15.4856 14.5561 15.2001 14.8403C14.9145 15.1245 14.5723 15.346 14.1955 15.4906C13.676 15.6819 13.1273 15.7832 12.5733 15.7899C11.6524 15.8313 11.3762 15.8404 9.04357 15.8404C6.71091 15.8404 6.43472 15.8317 5.51381 15.7899C4.95985 15.7832 4.41117 15.6819 3.8916 15.4906C3.51481 15.346 3.17263 15.1245 2.88707 14.8403C2.60152 14.5561 2.37892 14.2156 2.23362 13.8406C2.04138 13.3235 1.93966 12.7774 1.93288 12.2261C1.89129 11.3092 1.88214 11.0343 1.88214 8.7132C1.88214 6.3921 1.89087 6.11723 1.93288 5.2003C1.93966 4.64899 2.04138 4.10292 2.23362 3.58584C2.37892 3.21085 2.60152 2.8703 2.88707 2.58611C3.17263 2.30192 3.51481 2.08039 3.8916 1.93577C4.41117 1.74446 4.95985 1.64322 5.51381 1.63648C6.43514 1.59508 6.71133 1.58597 9.04357 1.58597ZM9.04357 0.0195312C6.67265 0.0195312 6.37399 0.0294664 5.44226 0.0716907C4.71728 0.086042 3.99999 0.222656 3.32091 0.47572C2.73837 0.694155 2.21074 1.03646 1.77482 1.47876C1.33 1.91275 0.985759 2.43816 0.76614 3.01829C0.511861 3.69413 0.374592 4.40799 0.360172 5.12951C0.318577 6.05596 0.308594 6.35319 0.308594 8.71279C0.308594 11.0724 0.318577 11.3696 0.361004 12.2969C0.375424 13.0184 0.512693 13.7323 0.766972 14.4081C0.986348 14.9882 1.3303 15.5136 1.77482 15.9476C2.21098 16.39 2.7389 16.7324 3.32174 16.9507C4.00082 17.2037 4.71811 17.3404 5.44309 17.3547C6.37482 17.3961 6.67223 17.4069 9.0444 17.4069C11.4166 17.4069 11.714 17.3969 12.6457 17.3547C13.3707 17.3404 14.088 17.2037 14.7671 16.9507C15.3471 16.7269 15.8739 16.3851 16.3137 15.9472C16.7534 15.5092 17.0965 14.9847 17.321 14.4073C17.5753 13.7314 17.7125 13.0176 17.727 12.2961C17.7686 11.3696 17.7785 11.0724 17.7785 8.71279C17.7785 6.35319 17.7686 6.05596 17.7261 5.12868C17.7117 4.40716 17.5744 3.6933 17.3202 3.01746C17.1008 2.43741 16.7568 1.912 16.3123 1.47793C15.8762 1.03553 15.3482 0.69322 14.7654 0.474892C14.0863 0.221828 13.369 0.0852142 12.644 0.0708629C11.7131 0.0294664 11.4145 0.0195312 9.04357 0.0195312Z" fill="#27272A"/>
<path d="M9.04226 4.25C8.15509 4.25 7.28784 4.51182 6.55018 5.00235C5.81253 5.49288 5.2376 6.1901 4.89809 7.00582C4.55858 7.82155 4.46975 8.71915 4.64283 9.58511C4.81591 10.4511 5.24313 11.2465 5.87045 11.8709C6.49777 12.4952 7.29703 12.9204 8.16716 13.0926C9.03728 13.2649 9.93919 13.1765 10.7588 12.8386C11.5785 12.5007 12.279 11.9285 12.7719 11.1944C13.2648 10.4602 13.5279 9.59713 13.5279 8.71419C13.5279 7.53022 13.0553 6.39473 12.2141 5.55753C11.3729 4.72033 10.2319 4.25 9.04226 4.25ZM9.04226 11.6119C8.46639 11.6119 7.90345 11.442 7.42463 11.1236C6.94581 10.8052 6.57261 10.3526 6.35224 9.82311C6.13186 9.29362 6.0742 8.71098 6.18655 8.14887C6.2989 7.58676 6.5762 7.07043 6.98341 6.66517C7.39061 6.25992 7.90942 5.98393 8.47422 5.87212C9.03903 5.76031 9.62447 5.8177 10.1565 6.03702C10.6885 6.25634 11.1433 6.62776 11.4632 7.10429C11.7832 7.58082 11.9539 8.14107 11.9539 8.71419C11.9539 9.48273 11.6472 10.2198 11.1011 10.7632C10.5551 11.3066 9.81448 11.6119 9.04226 11.6119Z" fill="#27272A"/>
<path d="M13.7044 5.11568C14.2833 5.11568 14.7526 4.64863 14.7526 4.07249C14.7526 3.49635 14.2833 3.0293 13.7044 3.0293C13.1255 3.0293 12.6562 3.49635 12.6562 4.07249C12.6562 4.64863 13.1255 5.11568 13.7044 5.11568Z" fill="#27272A"/>
</svg>
