<svg width="18" height="17" viewBox="0 0 18 17" fill="none" xmlns="http://www.w3.org/2000/svg">
<path fill-rule="evenodd" clip-rule="evenodd" d="M9.05373 0.0195312C4.4234 0.0195312 0.698242 3.7269 0.698242 8.33512C0.698242 12.0078 3.10045 15.1262 6.40783 16.2349C6.8256 16.3042 6.96486 16.0617 6.96486 15.8191C6.96486 15.6113 6.96486 15.0915 6.96486 14.3986C4.63229 14.9183 4.14488 13.2898 4.14488 13.2898C3.76192 12.3197 3.20489 12.0771 3.20489 12.0771C2.43897 11.5574 3.27452 11.5574 3.27452 11.5574C4.11007 11.6267 4.56266 12.4236 4.56266 12.4236C5.29376 13.7056 6.51227 13.3245 6.99968 13.1166C7.0693 12.5622 7.27819 12.2157 7.52189 12.0078C5.67672 11.7999 3.72711 11.0723 3.72711 7.88469C3.72711 6.98383 4.04044 6.22157 4.59747 5.6672C4.52784 5.45931 4.21451 4.62775 4.6671 3.44971C4.6671 3.44971 5.36339 3.24182 6.96486 4.31592C7.62634 4.14268 8.35744 4.03873 9.05373 4.03873C9.75002 4.03873 10.4811 4.14268 11.1426 4.31592C12.7441 3.24182 13.4404 3.44971 13.4404 3.44971C13.893 4.5931 13.6144 5.42466 13.51 5.6672C14.0322 6.25622 14.3804 6.98383 14.3804 7.88469C14.3804 11.0723 12.4307 11.7653 10.5508 11.9732C10.8641 12.2157 11.1078 12.7354 11.1078 13.4977C11.1078 14.6065 11.1078 15.5073 11.1078 15.7845C11.1078 15.9924 11.247 16.2696 11.6996 16.2003C15.007 15.1262 17.4092 12.0078 17.4092 8.33512C17.4092 3.7269 13.6841 0.0195312 9.05373 0.0195312Z" fill="#27272A"/>
</svg>
