<svg width="16" height="15" viewBox="0 0 16 15" fill="none" xmlns="http://www.w3.org/2000/svg">
<path d="M9.45462 3.38457V1.94338H6.57225V3.38457H9.45462ZM2.24868 4.82576V12.7523H13.7782V4.82576H2.24868ZM13.7782 3.38457C14.578 3.38457 15.2194 4.0259 15.2194 4.82576V12.7523C15.2194 13.5522 14.578 14.1935 13.7782 14.1935H2.24868C1.44882 14.1935 0.807495 13.5522 0.807495 12.7523L0.814701 4.82576C0.814701 4.0259 1.44882 3.38457 2.24868 3.38457H5.13106V1.94338C5.13106 1.14353 5.77239 0.502197 6.57225 0.502197H9.45462C10.2545 0.502197 10.8958 1.14353 10.8958 1.94338V3.38457H13.7782Z" fill="#064E3B"/>
</svg>
