<svg width="19" height="10" viewBox="0 0 19 10" fill="none" xmlns="http://www.w3.org/2000/svg">
<path d="M3.20804 5.73919C4.03372 5.73919 4.70928 5.06364 4.70928 4.23796C4.70928 3.41228 4.03372 2.73672 3.20804 2.73672C2.38236 2.73672 1.7068 3.41228 1.7068 4.23796C1.7068 5.06364 2.38236 5.73919 3.20804 5.73919ZM4.05624 6.56487C3.77851 6.51984 3.50078 6.48981 3.20804 6.48981C2.46493 6.48981 1.75935 6.64744 1.12132 6.92517C0.565863 7.16537 0.205566 7.70581 0.205566 8.31381V9.49228H3.58335V8.28379C3.58335 7.66078 3.75599 7.07529 4.05624 6.56487ZM15.2179 5.73919C16.0436 5.73919 16.7192 5.06364 16.7192 4.23796C16.7192 3.41228 16.0436 2.73672 15.2179 2.73672C14.3923 2.73672 13.7167 3.41228 13.7167 4.23796C13.7167 5.06364 14.3923 5.73919 15.2179 5.73919ZM18.2204 8.31381C18.2204 7.70581 17.8601 7.16537 17.3047 6.92517C16.6666 6.64744 15.961 6.48981 15.2179 6.48981C14.9252 6.48981 14.6475 6.51984 14.3697 6.56487C14.67 7.07529 14.8426 7.66078 14.8426 8.28379V9.49228H18.2204V8.31381ZM12.3956 6.22709C11.5174 5.83677 10.4365 5.55154 9.21299 5.55154C7.98948 5.55154 6.90859 5.84428 6.03037 6.22709C5.2197 6.58739 4.70928 7.39806 4.70928 8.28379V9.49228H13.7167V8.28379C13.7167 7.39806 13.2063 6.58739 12.3956 6.22709ZM6.26306 7.99105C6.33061 7.81841 6.36064 7.69831 6.94612 7.47312C7.67422 7.18789 8.43985 7.05277 9.21299 7.05277C9.98612 7.05277 10.7518 7.18789 11.4799 7.47312C12.0578 7.69831 12.0879 7.81841 12.1629 7.99105H6.26306ZM9.21299 1.9861C9.62583 1.9861 9.96361 2.32388 9.96361 2.73672C9.96361 3.14956 9.62583 3.48734 9.21299 3.48734C8.80015 3.48734 8.46237 3.14956 8.46237 2.73672C8.46237 2.32388 8.80015 1.9861 9.21299 1.9861ZM9.21299 0.484863C7.96696 0.484863 6.96113 1.49069 6.96113 2.73672C6.96113 3.98275 7.96696 4.98857 9.21299 4.98857C10.459 4.98857 11.4648 3.98275 11.4648 2.73672C11.4648 1.49069 10.459 0.484863 9.21299 0.484863Z" fill="#064E3B"/>
</svg>
