<svg width="16" height="14" viewBox="0 0 16 14" fill="none" xmlns="http://www.w3.org/2000/svg">
<path d="M8.17603 3.02398V0.141602H0.970093V13.1123H15.382V3.02398H8.17603ZM3.85247 11.6711H2.41128V10.2299H3.85247V11.6711ZM3.85247 8.78873H2.41128V7.34754H3.85247V8.78873ZM3.85247 5.90635H2.41128V4.46516H3.85247V5.90635ZM3.85247 3.02398H2.41128V1.58279H3.85247V3.02398ZM6.73484 11.6711H5.29366V10.2299H6.73484V11.6711ZM6.73484 8.78873H5.29366V7.34754H6.73484V8.78873ZM6.73484 5.90635H5.29366V4.46516H6.73484V5.90635ZM6.73484 3.02398H5.29366V1.58279H6.73484V3.02398ZM13.9408 11.6711H8.17603V10.2299H9.61722V8.78873H8.17603V7.34754H9.61722V5.90635H8.17603V4.46516H13.9408V11.6711ZM12.4996 5.90635H11.0584V7.34754H12.4996V5.90635ZM12.4996 8.78873H11.0584V10.2299H12.4996V8.78873Z" fill="#064E3B"/>
</svg>
